<svg width="32" height="32" viewBox="0 0 32 32" fill="none" xmlns="http://www.w3.org/2000/svg">
<path d="M16.3986 7.90243L1 23.3008V31L8.69929 31L24.0979 15.6016M16.3986 7.90243L21.9202 2.38085L21.9235 2.37758C22.6836 1.61751 23.0643 1.2368 23.5032 1.09421C23.8898 0.968598 24.3062 0.968598 24.6928 1.09421C25.1314 1.2367 25.5116 1.61697 26.2706 2.37596L29.6194 5.72472C30.3817 6.48697 30.763 6.86828 30.9058 7.30776C31.0314 7.69434 31.0314 8.11076 30.9058 8.49735C30.7631 8.93652 30.3823 9.31725 29.6212 10.0784L29.6195 10.08L24.0979 15.6016M16.3986 7.90243L24.0979 15.6016" stroke="#B5B8CF" stroke-width="1.5" stroke-linecap="round" stroke-linejoin="round"/>
</svg>
