<svg width="419" height="269" viewBox="0 0 419 269" fill="none" xmlns="http://www.w3.org/2000/svg">
<path d="M105 254.474L116.154 251.485L107.989 243.32L105 254.474ZM479.767 -121.707L110.657 247.403L112.071 248.817L481.181 -120.293L479.767 -121.707Z" fill="#242957" fill-opacity="0.5"/>
<path d="M92 241.474L103.154 238.485L94.9886 230.32L92 241.474ZM466.767 -134.707L97.6568 234.403L99.071 235.817L468.181 -133.293L466.767 -134.707Z" fill="#242957" fill-opacity="0.5"/>
<path d="M79 228.474L90.1535 225.485L81.9886 217.32L79 228.474ZM453.767 -147.707L84.6568 221.403L86.071 222.817L455.181 -146.293L453.767 -147.707Z" fill="#242957" fill-opacity="0.5"/>
<path d="M66 215.474L77.1535 212.485L68.9886 204.32L66 215.474ZM440.767 -160.707L71.6568 208.403L73.071 209.817L442.181 -159.293L440.767 -160.707Z" fill="#242957" fill-opacity="0.5"/>
<path d="M53 202.474L64.1535 199.485L55.9886 191.32L53 202.474ZM427.767 -173.707L58.6568 195.403L60.071 196.817L429.181 -172.293L427.767 -173.707Z" fill="#242957" fill-opacity="0.5"/>
<path d="M40 189.474L51.1535 186.485L42.9886 178.32L40 189.474ZM414.767 -186.707L45.6568 182.403L47.071 183.817L416.181 -185.293L414.767 -186.707Z" fill="#242957" fill-opacity="0.5"/>
<path d="M27 176.474L38.1535 173.485L29.9886 165.32L27 176.474ZM401.767 -199.707L32.6568 169.403L34.071 170.817L403.181 -198.293L401.767 -199.707Z" fill="#242957" fill-opacity="0.5"/>
<path d="M14 163.474L25.1535 160.485L16.9886 152.32L14 163.474ZM388.767 -212.707L19.6568 156.403L21.071 157.817L390.181 -211.293L388.767 -212.707Z" fill="#242957" fill-opacity="0.5"/>
<path d="M104 268.474L115.154 265.485L106.989 257.32L104 268.474ZM478.767 -107.707L109.657 261.403L111.071 262.817L480.181 -106.293L478.767 -107.707Z" fill="#AD9AB6"/>
<path d="M91 255.474L102.154 252.485L93.9886 244.32L91 255.474ZM465.767 -120.707L96.6568 248.403L98.071 249.817L467.181 -119.293L465.767 -120.707Z" fill="#AD9AB6"/>
<path d="M78 242.474L89.1535 239.485L80.9886 231.32L78 242.474ZM452.767 -133.707L83.6568 235.403L85.071 236.817L454.181 -132.293L452.767 -133.707Z" fill="#AD9AB6"/>
<path d="M65 229.474L76.1535 226.485L67.9886 218.32L65 229.474ZM439.767 -146.707L70.6568 222.403L72.071 223.817L441.181 -145.293L439.767 -146.707Z" fill="#AD9AB6"/>
<path d="M52 216.474L63.1535 213.485L54.9886 205.32L52 216.474ZM426.767 -159.707L57.6568 209.403L59.071 210.817L428.181 -158.293L426.767 -159.707Z" fill="#AD9AB6"/>
<path d="M39 203.474L50.1535 200.485L41.9886 192.32L39 203.474ZM413.767 -172.707L44.6568 196.403L46.071 197.817L415.181 -171.293L413.767 -172.707Z" fill="#AD9AB6"/>
<path d="M26 190.474L37.1535 187.485L28.9886 179.32L26 190.474ZM400.767 -185.707L31.6568 183.403L33.071 184.817L402.181 -184.293L400.767 -185.707Z" fill="#AD9AB6"/>
<path d="M13 177.474L24.1535 174.485L15.9886 166.32L13 177.474ZM387.767 -198.707L18.6568 170.403L20.071 171.817L389.181 -197.293L387.767 -198.707Z" fill="#AD9AB6"/>
<path d="M-2.99215e-05 164.474L11.1535 161.485L2.98855 153.32L-2.99215e-05 164.474ZM374.767 -211.707L5.65682 157.403L7.07104 158.817L376.181 -210.293L374.767 -211.707Z" fill="#AD9AB6"/>
</svg>
