<svg width="763" height="656" viewBox="0 0 763 656" fill="none" xmlns="http://www.w3.org/2000/svg">
<line x1="436.788" y1="-443.797" x2="-337.493" y2="330.484" stroke="#D47C4B" stroke-opacity="0.5"/>
<line x1="465.073" y1="-415.513" x2="-309.208" y2="358.768" stroke="#D47C4B" stroke-opacity="0.5"/>
<line x1="493.357" y1="-387.229" x2="-280.924" y2="387.052" stroke="#D47C4B" stroke-opacity="0.5"/>
<line x1="521.641" y1="-358.944" x2="-252.64" y2="415.337" stroke="#D47C4B" stroke-opacity="0.5"/>
<line x1="549.926" y1="-330.66" x2="-224.356" y2="443.621" stroke="#D47C4B" stroke-opacity="0.5"/>
<line x1="578.21" y1="-302.376" x2="-196.071" y2="471.906" stroke="#D47C4B" stroke-opacity="0.5"/>
<line x1="606.494" y1="-274.091" x2="-167.787" y2="500.19" stroke="#D47C4B" stroke-opacity="0.5"/>
<line x1="634.778" y1="-245.807" x2="-139.504" y2="528.475" stroke="#D47C4B" stroke-opacity="0.5"/>
<line x1="663.77" y1="-218.23" x2="-110.511" y2="556.051" stroke="#D47C4B" stroke-opacity="0.5"/>
<line x1="692.054" y1="-189.946" x2="-82.2269" y2="584.335" stroke="#D47C4B" stroke-opacity="0.5"/>
<line x1="720.338" y1="-161.662" x2="-53.9427" y2="612.62" stroke="#D47C4B" stroke-opacity="0.5"/>
<line x1="748.623" y1="-133.377" x2="-25.6585" y2="640.904" stroke="#D47C4B" stroke-opacity="0.5"/>
<line x1="422.293" y1="-457.585" x2="-351.281" y2="315.989" stroke="#242957" stroke-linecap="round" stroke-dasharray="3 3"/>
<line x1="450.577" y1="-429.301" x2="-322.997" y2="344.273" stroke="#242957" stroke-linecap="round" stroke-dasharray="3 3"/>
<line x1="478.861" y1="-401.017" x2="-294.713" y2="372.557" stroke="#242957" stroke-linecap="round" stroke-dasharray="3 3"/>
<line x1="507.145" y1="-372.732" x2="-266.429" y2="400.842" stroke="#242957" stroke-linecap="round" stroke-dasharray="3 3"/>
<line x1="535.43" y1="-344.448" x2="-238.144" y2="429.126" stroke="#242957" stroke-linecap="round" stroke-dasharray="3 3"/>
<line x1="563.714" y1="-316.164" x2="-209.86" y2="457.41" stroke="#242957" stroke-linecap="round" stroke-dasharray="3 3"/>
<line x1="591.998" y1="-287.88" x2="-181.576" y2="485.694" stroke="#242957" stroke-linecap="round" stroke-dasharray="3 3"/>
<line x1="620.283" y1="-259.596" x2="-153.291" y2="513.978" stroke="#242957" stroke-linecap="round" stroke-dasharray="3 3"/>
<line x1="648.566" y1="-231.311" x2="-125.008" y2="542.263" stroke="#242957" stroke-linecap="round" stroke-dasharray="3 3"/>
<line x1="677.558" y1="-203.734" x2="-96.0157" y2="569.84" stroke="#242957" stroke-linecap="round" stroke-dasharray="3 3"/>
<line x1="705.843" y1="-175.45" x2="-67.7313" y2="598.124" stroke="#242957" stroke-linecap="round" stroke-dasharray="3 3"/>
<line x1="734.127" y1="-147.166" x2="-39.4471" y2="626.408" stroke="#242957" stroke-linecap="round" stroke-dasharray="3 3"/>
<line x1="762.411" y1="-118.882" x2="-11.1629" y2="654.692" stroke="#242957" stroke-linecap="round" stroke-dasharray="3 3"/>
</svg>
